<svg width="692" height="999" viewBox="0 0 692 999" fill="none" xmlns="http://www.w3.org/2000/svg">
<path d="M822.648 331.127C835.298 329.275 842.743 344.882 833.342 353.548L636.17 535.316C631.978 539.18 630.793 545.325 633.248 550.47L744.126 782.933C749.48 794.156 737.534 805.769 726.466 800.1L491.857 679.927C487.008 677.444 481.125 678.247 477.119 681.94L278.537 865.007C269.231 873.586 254.399 865.159 257.004 852.773L310.618 597.858C311.824 592.12 309.041 586.285 303.823 583.612L71.9761 464.854C60.711 459.084 63.4963 442.254 76.0199 440.421L343.261 401.301C348.652 400.512 352.979 396.445 354.1 391.114L408.353 133.162C410.912 120.993 427.455 119.017 432.808 130.241L543.687 362.703C546.141 367.849 551.662 370.795 557.304 369.969L822.648 331.127Z" fill="#112A41" fill-opacity="0.7"/>
</svg>
