<svg width="522" height="505" viewBox="0 0 522 505" fill="none" xmlns="http://www.w3.org/2000/svg">
<path d="M296.183 50.2975C300.058 43.5864 310.257 45.7543 311.067 53.4613L326.877 203.833C327.24 207.279 329.78 210.101 333.17 210.821L481.065 242.263C488.645 243.875 489.735 254.244 482.656 257.397L344.53 318.901C341.364 320.31 339.465 323.598 339.828 327.045L355.627 477.418C356.436 485.125 346.911 489.366 341.725 483.607L240.548 371.247C238.229 368.672 234.516 367.882 231.35 369.292L93.2189 430.785C86.1392 433.937 79.1624 426.188 83.0369 419.477L158.632 288.531C160.365 285.529 159.968 281.754 157.649 279.178L56.4806 166.81C51.2954 161.051 56.5088 152.021 64.089 153.632L211.987 185.063C215.376 185.784 218.845 184.239 220.578 181.238L296.183 50.2975Z" fill="#112A41" fill-opacity="0.4"/>
</svg>
